  0
SECTION
  2
ENTITIES
  0
POLYLINE
  8
0
  10
0
  20
0
  30
0
  0
VERTEX
  8
0
  10
12.425
  20
-1.457
  30
0.000
  0
VERTEX
  8
0
  10
9.443
  20
-1.457
  30
0.000
  0
VERTEX
  8
0
  10
9.423
  20
-1.453
  30
0.000
  0
VERTEX
  8
0
  10
9.407
  20
-1.441
  30
0.000
  0
VERTEX
  8
0
  10
9.400
  20
-1.432
  30
0.000
  0
VERTEX
  8
0
  10
9.394
  20
-1.423
  30
0.000
  0
VERTEX
  8
0
  10
9.279
  20
-1.254
  30
0.000
  0
VERTEX
  8
0
  10
9.158
  20
-1.090
  30
0.000
  0
VERTEX
  8
0
  10
9.030
  20
-0.931
  30
0.000
  0
VERTEX
  8
0
  10
8.896
  20
-0.777
  30
0.000
  0
VERTEX
  8
0
  10
8.756
  20
-0.628
  30
0.000
  0
VERTEX
  8
0
  10
8.610
  20
-0.485
  30
0.000
  0
VERTEX
  8
0
  10
8.459
  20
-0.347
  30
0.000
  0
VERTEX
  8
0
  10
8.302
  20
-0.216
  30
0.000
  0
VERTEX
  8
0
  10
8.141
  20
-0.090
  30
0.000
  0
VERTEX
  8
0
  10
7.975
  20
0.028
  30
0.000
  0
VERTEX
  8
0
  10
7.804
  20
0.141
  30
0.000
  0
VERTEX
  8
0
  10
7.629
  20
0.246
  30
0.000
  0
VERTEX
  8
0
  10
7.450
  20
0.344
  30
0.000
  0
VERTEX
  8
0
  10
7.267
  20
0.436
  30
0.000
  0
VERTEX
  8
0
  10
7.081
  20
0.520
  30
0.000
  0
VERTEX
  8
0
  10
6.891
  20
0.597
  30
0.000
  0
VERTEX
  8
0
  10
6.699
  20
0.666
  30
0.000
  0
VERTEX
  8
0
  10
6.504
  20
0.728
  30
0.000
  0
VERTEX
  8
0
  10
6.307
  20
0.782
  30
0.000
  0
VERTEX
  8
0
  10
6.108
  20
0.828
  30
0.000
  0
VERTEX
  8
0
  10
5.908
  20
0.867
  30
0.000
  0
VERTEX
  8
0
  10
5.706
  20
0.898
  30
0.000
  0
VERTEX
  8
0
  10
5.503
  20
0.920
  30
0.000
  0
VERTEX
  8
0
  10
5.299
  20
0.935
  30
0.000
  0
VERTEX
  8
0
  10
5.024
  20
0.942
  30
0.000
  0
VERTEX
  8
0
  10
-5.024
  20
0.942
  30
0.000
  0
VERTEX
  8
0
  10
-5.228
  20
0.938
  30
0.000
  0
VERTEX
  8
0
  10
-5.432
  20
0.926
  30
0.000
  0
VERTEX
  8
0
  10
-5.636
  20
0.906
  30
0.000
  0
VERTEX
  8
0
  10
-5.838
  20
0.878
  30
0.000
  0
VERTEX
  8
0
  10
-6.039
  20
0.843
  30
0.000
  0
VERTEX
  8
0
  10
-6.239
  20
0.799
  30
0.000
  0
VERTEX
  8
0
  10
-6.437
  20
0.748
  30
0.000
  0
VERTEX
  8
0
  10
-6.632
  20
0.688
  30
0.000
  0
VERTEX
  8
0
  10
-6.825
  20
0.622
  30
0.000
  0
VERTEX
  8
0
  10
-7.016
  20
0.547
  30
0.000
  0
VERTEX
  8
0
  10
-7.203
  20
0.466
  30
0.000
  0
VERTEX
  8
0
  10
-7.387
  20
0.377
  30
0.000
  0
VERTEX
  8
0
  10
-7.567
  20
0.281
  30
0.000
  0
VERTEX
  8
0
  10
-7.744
  20
0.178
  30
0.000
  0
VERTEX
  8
0
  10
-7.916
  20
0.068
  30
0.000
  0
VERTEX
  8
0
  10
-8.084
  20
-0.049
  30
0.000
  0
VERTEX
  8
0
  10
-8.247
  20
-0.172
  30
0.000
  0
VERTEX
  8
0
  10
-8.405
  20
-0.301
  30
0.000
  0
VERTEX
  8
0
  10
-8.558
  20
-0.436
  30
0.000
  0
VERTEX
  8
0
  10
-8.706
  20
-0.578
  30
0.000
  0
VERTEX
  8
0
  10
-8.848
  20
-0.725
  30
0.000
  0
VERTEX
  8
0
  10
-8.984
  20
-0.877
  30
0.000
  0
VERTEX
  8
0
  10
-9.114
  20
-1.035
  30
0.000
  0
VERTEX
  8
0
  10
-9.238
  20
-1.197
  30
0.000
  0
VERTEX
  8
0
  10
-9.394
  20
-1.423
  30
0.000
  0
VERTEX
  8
0
  10
-9.400
  20
-1.432
  30
0.000
  0
VERTEX
  8
0
  10
-9.413
  20
-1.447
  30
0.000
  0
VERTEX
  8
0
  10
-9.431
  20
-1.455
  30
0.000
  0
VERTEX
  8
0
  10
-9.443
  20
-1.457
  30
0.000
  0
VERTEX
  8
0
  10
-12.425
  20
-1.457
  30
0.000
  0
SEQEND
  0
POLYLINE
  8
0
  10
0
  20
0
  30
0
  0
VERTEX
  8
0
  10
12.425
  20
-1.555
  30
0.000
  0
VERTEX
  8
0
  10
9.443
  20
-1.555
  30
0.000
  0
VERTEX
  8
0
  10
9.398
  20
-1.651
  30
0.000
  0
VERTEX
  8
0
  10
9.355
  20
-1.640
  30
0.000
  0
VERTEX
  8
0
  10
9.315
  20
-1.620
  30
0.000
  0
VERTEX
  8
0
  10
9.279
  20
-1.594
  30
0.000
  0
VERTEX
  8
0
  10
9.248
  20
-1.562
  30
0.000
  0
VERTEX
  8
0
  10
9.228
  20
-1.532
  30
0.000
  0
VERTEX
  8
0
  10
9.115
  20
-1.366
  30
0.000
  0
VERTEX
  8
0
  10
8.996
  20
-1.206
  30
0.000
  0
VERTEX
  8
0
  10
8.870
  20
-1.049
  30
0.000
  0
VERTEX
  8
0
  10
8.738
  20
-0.899
  30
0.000
  0
VERTEX
  8
0
  10
8.600
  20
-0.753
  30
0.000
  0
VERTEX
  8
0
  10
8.457
  20
-0.613
  30
0.000
  0
VERTEX
  8
0
  10
8.308
  20
-0.479
  30
0.000
  0
VERTEX
  8
0
  10
8.153
  20
-0.351
  30
0.000
  0
VERTEX
  8
0
  10
7.994
  20
-0.229
  30
0.000
  0
VERTEX
  8
0
  10
7.830
  20
-0.114
  30
0.000
  0
VERTEX
  8
0
  10
7.662
  20
-0.005
  30
0.000
  0
VERTEX
  8
0
  10
7.489
  20
0.097
  30
0.000
  0
VERTEX
  8
0
  10
7.313
  20
0.191
  30
0.000
  0
VERTEX
  8
0
  10
7.133
  20
0.279
  30
0.000
  0
VERTEX
  8
0
  10
6.949
  20
0.360
  30
0.000
  0
VERTEX
  8
0
  10
6.763
  20
0.433
  30
0.000
  0
VERTEX
  8
0
  10
6.573
  20
0.498
  30
0.000
  0
VERTEX
  8
0
  10
6.381
  20
0.557
  30
0.000
  0
VERTEX
  8
0
  10
6.187
  20
0.607
  30
0.000
  0
VERTEX
  8
0
  10
5.992
  20
0.649
  30
0.000
  0
VERTEX
  8
0
  10
5.794
  20
0.684
  30
0.000
  0
VERTEX
  8
0
  10
5.596
  20
0.711
  30
0.000
  0
VERTEX
  8
0
  10
5.396
  20
0.730
  30
0.000
  0
VERTEX
  8
0
  10
5.196
  20
0.741
  30
0.000
  0
VERTEX
  8
0
  10
5.024
  20
0.743
  30
0.000
  0
VERTEX
  8
0
  10
-5.024
  20
0.743
  30
0.000
  0
VERTEX
  8
0
  10
-5.224
  20
0.739
  30
0.000
  0
VERTEX
  8
0
  10
-5.424
  20
0.727
  30
0.000
  0
VERTEX
  8
0
  10
-5.624
  20
0.708
  30
0.000
  0
VERTEX
  8
0
  10
-5.822
  20
0.680
  30
0.000
  0
VERTEX
  8
0
  10
-6.020
  20
0.644
  30
0.000
  0
VERTEX
  8
0
  10
-6.215
  20
0.600
  30
0.000
  0
VERTEX
  8
0
  10
-6.409
  20
0.549
  30
0.000
  0
VERTEX
  8
0
  10
-6.600
  20
0.490
  30
0.000
  0
VERTEX
  8
0
  10
-6.789
  20
0.423
  30
0.000
  0
VERTEX
  8
0
  10
-6.975
  20
0.349
  30
0.000
  0
VERTEX
  8
0
  10
-7.159
  20
0.267
  30
0.000
  0
VERTEX
  8
0
  10
-7.338
  20
0.178
  30
0.000
  0
VERTEX
  8
0
  10
-7.514
  20
0.082
  30
0.000
  0
VERTEX
  8
0
  10
-7.686
  20
-0.020
  30
0.000
  0
VERTEX
  8
0
  10
-7.854
  20
-0.130
  30
0.000
  0
VERTEX
  8
0
  10
-8.017
  20
-0.246
  30
0.000
  0
VERTEX
  8
0
  10
-8.176
  20
-0.369
  30
0.000
  0
VERTEX
  8
0
  10
-8.329
  20
-0.498
  30
0.000
  0
VERTEX
  8
0
  10
-8.477
  20
-0.633
  30
0.000
  0
VERTEX
  8
0
  10
-8.620
  20
-0.773
  30
0.000
  0
VERTEX
  8
0
  10
-8.757
  20
-0.920
  30
0.000
  0
VERTEX
  8
0
  10
-8.888
  20
-1.071
  30
0.000
  0
VERTEX
  8
0
  10
-9.013
  20
-1.228
  30
0.000
  0
VERTEX
  8
0
  10
-9.131
  20
-1.390
  30
0.000
  0
VERTEX
  8
0
  10
-9.228
  20
-1.532
  30
0.000
  0
VERTEX
  8
0
  10
-9.254
  20
-1.568
  30
0.000
  0
VERTEX
  8
0
  10
-9.286
  20
-1.599
  30
0.000
  0
VERTEX
  8
0
  10
-9.322
  20
-1.624
  30
0.000
  0
VERTEX
  8
0
  10
-9.363
  20
-1.642
  30
0.000
  0
VERTEX
  8
0
  10
-9.407
  20
-1.653
  30
0.000
  0
VERTEX
  8
0
  10
-9.443
  20
-1.655
  30
0.000
  0
VERTEX
  8
0
  10
-12.425
  20
-1.655
  30
0.000
  0
SEQEND
  0
POLYLINE
  8
0
  10
0
  20
0
  30
0
  0
VERTEX
  8
0
  10
4.050
  20
-5.750
  30
0.000
  0
VERTEX
  8
0
  10
3.981
  20
-5.746
  30
0.000
  0
VERTEX
  8
0
  10
3.913
  20
-5.734
  30
0.000
  0
VERTEX
  8
0
  10
3.846
  20
-5.714
  30
0.000
  0
VERTEX
  8
0
  10
3.783
  20
-5.687
  30
0.000
  0
VERTEX
  8
0
  10
3.722
  20
-5.653
  30
0.000
  0
VERTEX
  8
0
  10
3.667
  20
-5.612
  30
0.000
  0
VERTEX
  8
0
  10
3.616
  20
-5.564
  30
0.000
  0
VERTEX
  8
0
  10
3.571
  20
-5.512
  30
0.000
  0
VERTEX
  8
0
  10
3.533
  20
-5.454
  30
0.000
  0
VERTEX
  8
0
  10
3.501
  20
-5.392
  30
0.000
  0
VERTEX
  8
0
  10
3.477
  20
-5.328
  30
0.000
  0
VERTEX
  8
0
  10
3.460
  20
-5.260
  30
0.000
  0
VERTEX
  8
0
  10
3.451
  20
-5.192
  30
0.000
  0
VERTEX
  8
0
  10
3.450
  20
-5.150
  30
0.000
  0
VERTEX
  8
0
  10
3.454
  20
-5.081
  30
0.000
  0
VERTEX
  8
0
  10
3.466
  20
-5.013
  30
0.000
  0
VERTEX
  8
0
  10
3.486
  20
-4.946
  30
0.000
  0
VERTEX
  8
0
  10
3.513
  20
-4.883
  30
0.000
  0
VERTEX
  8
0
  10
3.547
  20
-4.822
  30
0.000
  0
VERTEX
  8
0
  10
3.588
  20
-4.767
  30
0.000
  0
VERTEX
  8
0
  10
3.636
  20
-4.716
  30
0.000
  0
VERTEX
  8
0
  10
3.688
  20
-4.671
  30
0.000
  0
VERTEX
  8
0
  10
3.746
  20
-4.633
  30
0.000
  0
VERTEX
  8
0
  10
3.808
  20
-4.601
  30
0.000
  0
VERTEX
  8
0
  10
3.872
  20
-4.577
  30
0.000
  0
VERTEX
  8
0
  10
3.940
  20
-4.560
  30
0.000
  0
VERTEX
  8
0
  10
4.008
  20
-4.551
  30
0.000
  0
VERTEX
  8
0
  10
4.050
  20
-4.550
  30
0.000
  0
VERTEX
  8
0
  10
4.250
  20
-4.550
  30
0.000
  0
VERTEX
  8
0
  10
4.319
  20
-4.554
  30
0.000
  0
VERTEX
  8
0
  10
4.387
  20
-4.566
  30
0.000
  0
VERTEX
  8
0
  10
4.454
  20
-4.586
  30
0.000
  0
VERTEX
  8
0
  10
4.517
  20
-4.613
  30
0.000
  0
VERTEX
  8
0
  10
4.578
  20
-4.647
  30
0.000
  0
VERTEX
  8
0
  10
4.633
  20
-4.688
  30
0.000
  0
VERTEX
  8
0
  10
4.684
  20
-4.736
  30
0.000
  0
VERTEX
  8
0
  10
4.729
  20
-4.788
  30
0.000
  0
VERTEX
  8
0
  10
4.767
  20
-4.846
  30
0.000
  0
VERTEX
  8
0
  10
4.799
  20
-4.908
  30
0.000
  0
VERTEX
  8
0
  10
4.823
  20
-4.972
  30
0.000
  0
VERTEX
  8
0
  10
4.840
  20
-5.040
  30
0.000
  0
VERTEX
  8
0
  10
4.849
  20
-5.108
  30
0.000
  0
VERTEX
  8
0
  10
4.850
  20
-5.150
  30
0.000
  0
VERTEX
  8
0
  10
4.846
  20
-5.219
  30
0.000
  0
VERTEX
  8
0
  10
4.834
  20
-5.287
  30
0.000
  0
VERTEX
  8
0
  10
4.814
  20
-5.354
  30
0.000
  0
VERTEX
  8
0
  10
4.787
  20
-5.417
  30
0.000
  0
VERTEX
  8
0
  10
4.753
  20
-5.478
  30
0.000
  0
VERTEX
  8
0
  10
4.712
  20
-5.533
  30
0.000
  0
VERTEX
  8
0
  10
4.664
  20
-5.584
  30
0.000
  0
VERTEX
  8
0
  10
4.612
  20
-5.629
  30
0.000
  0
VERTEX
  8
0
  10
4.554
  20
-5.667
  30
0.000
  0
VERTEX
  8
0
  10
4.492
  20
-5.699
  30
0.000
  0
VERTEX
  8
0
  10
4.428
  20
-5.723
  30
0.000
  0
VERTEX
  8
0
  10
4.360
  20
-5.740
  30
0.000
  0
VERTEX
  8
0
  10
4.292
  20
-5.749
  30
0.000
  0
VERTEX
  8
0
  10
4.250
  20
-5.750
  30
0.000
  0
VERTEX
  8
0
  10
4.050
  20
-5.750
  30
0.000
  0
SEQEND
  0
POLYLINE
  8
0
  10
0
  20
0
  30
0
  0
VERTEX
  8
0
  10
-4.250
  20
-5.750
  30
0.000
  0
VERTEX
  8
0
  10
-4.319
  20
-5.746
  30
0.000
  0
VERTEX
  8
0
  10
-4.387
  20
-5.734
  30
0.000
  0
VERTEX
  8
0
  10
-4.454
  20
-5.714
  30
0.000
  0
VERTEX
  8
0
  10
-4.517
  20
-5.687
  30
0.000
  0
VERTEX
  8
0
  10
-4.578
  20
-5.653
  30
0.000
  0
VERTEX
  8
0
  10
-4.633
  20
-5.612
  30
0.000
  0
VERTEX
  8
0
  10
-4.684
  20
-5.564
  30
0.000
  0
VERTEX
  8
0
  10
-4.729
  20
-5.512
  30
0.000
  0
VERTEX
  8
0
  10
-4.767
  20
-5.454
  30
0.000
  0
VERTEX
  8
0
  10
-4.799
  20
-5.392
  30
0.000
  0
VERTEX
  8
0
  10
-4.823
  20
-5.328
  30
0.000
  0
VERTEX
  8
0
  10
-4.840
  20
-5.260
  30
0.000
  0
VERTEX
  8
0
  10
-4.849
  20
-5.192
  30
0.000
  0
VERTEX
  8
0
  10
-4.850
  20
-5.150
  30
0.000
  0
VERTEX
  8
0
  10
-4.846
  20
-5.081
  30
0.000
  0
VERTEX
  8
0
  10
-4.834
  20
-5.013
  30
0.000
  0
VERTEX
  8
0
  10
-4.814
  20
-4.946
  30
0.000
  0
VERTEX
  8
0
  10
-4.787
  20
-4.883
  30
0.000
  0
VERTEX
  8
0
  10
-4.753
  20
-4.822
  30
0.000
  0
VERTEX
  8
0
  10
-4.712
  20
-4.767
  30
0.000
  0
VERTEX
  8
0
  10
-4.664
  20
-4.716
  30
0.000
  0
VERTEX
  8
0
  10
-4.612
  20
-4.671
  30
0.000
  0
VERTEX
  8
0
  10
-4.554
  20
-4.633
  30
0.000
  0
VERTEX
  8
0
  10
-4.492
  20
-4.601
  30
0.000
  0
VERTEX
  8
0
  10
-4.428
  20
-4.577
  30
0.000
  0
VERTEX
  8
0
  10
-4.360
  20
-4.560
  30
0.000
  0
VERTEX
  8
0
  10
-4.292
  20
-4.551
  30
0.000
  0
VERTEX
  8
0
  10
-4.250
  20
-4.550
  30
0.000
  0
VERTEX
  8
0
  10
-4.050
  20
-4.550
  30
0.000
  0
VERTEX
  8
0
  10
-3.981
  20
-4.554
  30
0.000
  0
VERTEX
  8
0
  10
-3.913
  20
-4.566
  30
0.000
  0
VERTEX
  8
0
  10
-3.846
  20
-4.586
  30
0.000
  0
VERTEX
  8
0
  10
-3.783
  20
-4.613
  30
0.000
  0
VERTEX
  8
0
  10
-3.722
  20
-4.647
  30
0.000
  0
VERTEX
  8
0
  10
-3.667
  20
-4.688
  30
0.000
  0
VERTEX
  8
0
  10
-3.616
  20
-4.736
  30
0.000
  0
VERTEX
  8
0
  10
-3.571
  20
-4.788
  30
0.000
  0
VERTEX
  8
0
  10
-3.533
  20
-4.846
  30
0.000
  0
VERTEX
  8
0
  10
-3.501
  20
-4.908
  30
0.000
  0
VERTEX
  8
0
  10
-3.477
  20
-4.972
  30
0.000
  0
VERTEX
  8
0
  10
-3.460
  20
-5.040
  30
0.000
  0
VERTEX
  8
0
  10
-3.451
  20
-5.108
  30
0.000
  0
VERTEX
  8
0
  10
-3.450
  20
-5.150
  30
0.000
  0
VERTEX
  8
0
  10
-3.454
  20
-5.219
  30
0.000
  0
VERTEX
  8
0
  10
-3.466
  20
-5.287
  30
0.000
  0
VERTEX
  8
0
  10
-3.486
  20
-5.354
  30
0.000
  0
VERTEX
  8
0
  10
-3.513
  20
-5.417
  30
0.000
  0
VERTEX
  8
0
  10
-3.547
  20
-5.478
  30
0.000
  0
VERTEX
  8
0
  10
-3.588
  20
-5.533
  30
0.000
  0
VERTEX
  8
0
  10
-3.636
  20
-5.584
  30
0.000
  0
VERTEX
  8
0
  10
-3.688
  20
-5.629
  30
0.000
  0
VERTEX
  8
0
  10
-3.746
  20
-5.667
  30
0.000
  0
VERTEX
  8
0
  10
-3.808
  20
-5.699
  30
0.000
  0
VERTEX
  8
0
  10
-3.872
  20
-5.723
  30
0.000
  0
VERTEX
  8
0
  10
-3.940
  20
-5.740
  30
0.000
  0
VERTEX
  8
0
  10
-4.008
  20
-5.749
  30
0.000
  0
VERTEX
  8
0
  10
-4.050
  20
-5.750
  30
0.000
  0
VERTEX
  8
0
  10
-4.250
  20
-5.750
  30
0.000
  0
SEQEND
  0
POLYLINE
  8
0
  10
0
  20
0
  30
0
  0
VERTEX
  8
0
  10
4.250
  20
-5.150
  30
0.000
  0
VERTEX
  8
0
  10
4.050
  20
-5.150
  30
0.000
  0
VERTEX
  8
0
  10
4.250
  20
-5.150
  30
0.000
  0
SEQEND
  0
POLYLINE
  8
0
  10
0
  20
0
  30
0
  0
VERTEX
  8
0
  10
-4.050
  20
-5.150
  30
0.000
  0
VERTEX
  8
0
  10
-4.250
  20
-5.150
  30
0.000
  0
VERTEX
  8
0
  10
-4.050
  20
-5.150
  30
0.000
  0
SEQEND
  0
POLYLINE
  8
0
  10
0
  20
0
  30
0
  0
VERTEX
  8
0
  10
7.750
  20
0.000
  30
0.000
  0
VERTEX
  8
0
  10
-7.750
  20
0.000
  30
0.000
  0
SEQEND
  0
POLYLINE
  8
0
  10
0
  20
0
  30
0
  0
VERTEX
  8
0
  10
-7.750
  20
0.000
  30
0.000
  0
VERTEX
  8
0
  10
7.750
  20
0.000
  30
0.000
  0
SEQEND
  0
POLYLINE
  8
0
  10
0
  20
0
  30
0
  0
VERTEX
  8
0
  10
12.425
  20
-1.655
  30
0.000
  0
VERTEX
  8
0
  10
9.443
  20
-1.655
  30
0.000
  0
VERTEX
  8
0
  10
9.398
  20
-1.651
  30
0.000
  0
VERTEX
  8
0
  10
9.355
  20
-1.640
  30
0.000
  0
VERTEX
  8
0
  10
9.315
  20
-1.620
  30
0.000
  0
VERTEX
  8
0
  10
9.279
  20
-1.594
  30
0.000
  0
VERTEX
  8
0
  10
9.248
  20
-1.562
  30
0.000
  0
VERTEX
  8
0
  10
9.228
  20
-1.532
  30
0.000
  0
VERTEX
  8
0
  10
9.115
  20
-1.366
  30
0.000
  0
VERTEX
  8
0
  10
8.996
  20
-1.206
  30
0.000
  0
VERTEX
  8
0
  10
8.870
  20
-1.049
  30
0.000
  0
VERTEX
  8
0
  10
8.738
  20
-0.899
  30
0.000
  0
VERTEX
  8
0
  10
8.600
  20
-0.753
  30
0.000
  0
VERTEX
  8
0
  10
8.457
  20
-0.613
  30
0.000
  0
VERTEX
  8
0
  10
8.308
  20
-0.479
  30
0.000
  0
VERTEX
  8
0
  10
8.153
  20
-0.351
  30
0.000
  0
VERTEX
  8
0
  10
7.994
  20
-0.229
  30
0.000
  0
VERTEX
  8
0
  10
7.830
  20
-0.114
  30
0.000
  0
VERTEX
  8
0
  10
7.662
  20
-0.005
  30
0.000
  0
VERTEX
  8
0
  10
7.489
  20
0.097
  30
0.000
  0
VERTEX
  8
0
  10
7.313
  20
0.191
  30
0.000
  0
VERTEX
  8
0
  10
7.133
  20
0.279
  30
0.000
  0
VERTEX
  8
0
  10
6.949
  20
0.360
  30
0.000
  0
VERTEX
  8
0
  10
6.763
  20
0.433
  30
0.000
  0
VERTEX
  8
0
  10
6.573
  20
0.498
  30
0.000
  0
VERTEX
  8
0
  10
6.381
  20
0.557
  30
0.000
  0
VERTEX
  8
0
  10
6.187
  20
0.607
  30
0.000
  0
VERTEX
  8
0
  10
5.992
  20
0.649
  30
0.000
  0
VERTEX
  8
0
  10
5.794
  20
0.684
  30
0.000
  0
VERTEX
  8
0
  10
5.596
  20
0.711
  30
0.000
  0
VERTEX
  8
0
  10
5.396
  20
0.730
  30
0.000
  0
VERTEX
  8
0
  10
5.196
  20
0.741
  30
0.000
  0
VERTEX
  8
0
  10
5.024
  20
0.743
  30
0.000
  0
VERTEX
  8
0
  10
-5.024
  20
0.743
  30
0.000
  0
VERTEX
  8
0
  10
-5.224
  20
0.739
  30
0.000
  0
VERTEX
  8
0
  10
-5.424
  20
0.727
  30
0.000
  0
VERTEX
  8
0
  10
-5.624
  20
0.708
  30
0.000
  0
VERTEX
  8
0
  10
-5.822
  20
0.680
  30
0.000
  0
VERTEX
  8
0
  10
-6.020
  20
0.644
  30
0.000
  0
VERTEX
  8
0
  10
-6.215
  20
0.600
  30
0.000
  0
VERTEX
  8
0
  10
-6.409
  20
0.549
  30
0.000
  0
VERTEX
  8
0
  10
-6.600
  20
0.490
  30
0.000
  0
VERTEX
  8
0
  10
-6.789
  20
0.423
  30
0.000
  0
VERTEX
  8
0
  10
-6.975
  20
0.349
  30
0.000
  0
VERTEX
  8
0
  10
-7.159
  20
0.267
  30
0.000
  0
VERTEX
  8
0
  10
-7.338
  20
0.178
  30
0.000
  0
VERTEX
  8
0
  10
-7.514
  20
0.082
  30
0.000
  0
VERTEX
  8
0
  10
-7.686
  20
-0.020
  30
0.000
  0
VERTEX
  8
0
  10
-7.854
  20
-0.130
  30
0.000
  0
VERTEX
  8
0
  10
-8.017
  20
-0.246
  30
0.000
  0
VERTEX
  8
0
  10
-8.176
  20
-0.369
  30
0.000
  0
VERTEX
  8
0
  10
-8.329
  20
-0.498
  30
0.000
  0
VERTEX
  8
0
  10
-8.477
  20
-0.633
  30
0.000
  0
VERTEX
  8
0
  10
-8.620
  20
-0.773
  30
0.000
  0
VERTEX
  8
0
  10
-8.757
  20
-0.920
  30
0.000
  0
VERTEX
  8
0
  10
-8.888
  20
-1.071
  30
0.000
  0
VERTEX
  8
0
  10
-9.013
  20
-1.228
  30
0.000
  0
VERTEX
  8
0
  10
-9.131
  20
-1.390
  30
0.000
  0
VERTEX
  8
0
  10
-9.228
  20
-1.532
  30
0.000
  0
VERTEX
  8
0
  10
-9.254
  20
-1.568
  30
0.000
  0
VERTEX
  8
0
  10
-9.286
  20
-1.599
  30
0.000
  0
VERTEX
  8
0
  10
-9.322
  20
-1.624
  30
0.000
  0
VERTEX
  8
0
  10
-9.363
  20
-1.642
  30
0.000
  0
VERTEX
  8
0
  10
-9.407
  20
-1.653
  30
0.000
  0
VERTEX
  8
0
  10
-9.443
  20
-1.655
  30
0.000
  0
VERTEX
  8
0
  10
-12.425
  20
-1.655
  30
0.000
  0
SEQEND
  0
ENDSEC
  0
EOF
